<svg width="24" height="32" viewBox="0 0 24 32" fill="none" xmlns="http://www.w3.org/2000/svg">
<g clip-path="url(#clip0_363_1054)">
<g filter="url(#filter0_f_363_1054)">
<ellipse cx="12" cy="29" rx="4" ry="2" fill="black" fill-opacity="0.12"/>
</g>
<path fill-rule="evenodd" clip-rule="evenodd" d="M17.9159 20.0632C20.3926 18.243 22 15.3092 22 12C22 6.47715 17.5228 2 12 2C6.47715 2 2 6.47715 2 12C2 15.3092 3.60742 18.243 6.08406 20.0632C7.96608 21.4813 10.619 23.7185 11.2288 27.3195C11.2934 27.701 11.6131 27.997 12 27.997C12.3869 27.997 12.7066 27.701 12.7712 27.3195C13.381 23.7185 16.0339 21.4813 17.9159 20.0632Z" fill="#EA352B"/>
</g>
<defs>
<filter id="filter0_f_363_1054" x="6" y="25" width="12" height="8" filterUnits="userSpaceOnUse" color-interpolation-filters="sRGB">
<feFlood flood-opacity="0" result="BackgroundImageFix"/>
<feBlend mode="normal" in="SourceGraphic" in2="BackgroundImageFix" result="shape"/>
<feGaussianBlur stdDeviation="1" result="effect1_foregroundBlur_363_1054"/>
</filter>
<clipPath id="clip0_363_1054">
<rect width="24" height="32" fill="white"/>
</clipPath>
</defs>
</svg>
